<svg width="24" height="18" viewBox="0 0 24 18" fill="none" xmlns="http://www.w3.org/2000/svg">
<path d="M20.8184 17.9287C20.3682 17.9379 19.926 17.8091 19.5512 17.5596C19.2723 17.3773 18.9462 17.2803 18.613 17.2803C18.2797 17.2803 17.9537 17.3773 17.6747 17.5596C17.2961 17.8007 16.8566 17.9287 16.4077 17.9287C15.9589 17.9287 15.5194 17.8007 15.1408 17.5596C14.8618 17.3772 14.5357 17.28 14.2023 17.28C13.869 17.28 13.5429 17.3772 13.2639 17.5596C12.8853 17.8007 12.4458 17.9287 11.9969 17.9287C11.5481 17.9287 11.1086 17.8007 10.7299 17.5596C10.4512 17.3773 10.1253 17.2801 9.79216 17.2801C9.45904 17.2801 9.13315 17.3773 8.85438 17.5596C8.5111 17.7878 8.1105 17.9145 7.69848 17.9255L7.67578 17.2768C7.98012 17.2696 8.27566 17.1733 8.52584 16.9998C8.90435 16.7589 9.34376 16.6308 9.79248 16.6308C10.2412 16.6308 10.6806 16.7589 11.0591 16.9998C11.3381 17.1822 11.6641 17.2793 11.9974 17.2793C12.3307 17.2793 12.6567 17.1822 12.9357 16.9998C13.3143 16.7586 13.754 16.6305 14.203 16.6305C14.6519 16.6305 15.0916 16.7586 15.4703 16.9998C15.7492 17.1822 16.0753 17.2793 16.4085 17.2793C16.7418 17.2793 17.0679 17.1822 17.3468 16.9998C17.7255 16.7589 18.165 16.6309 18.6138 16.6309C19.0626 16.6309 19.5021 16.7589 19.8808 16.9998C20.1604 17.1826 20.4872 17.28 20.8213 17.28C21.1554 17.28 21.4822 17.1826 21.7618 16.9998C22.1362 16.7511 22.5776 16.6225 23.027 16.6314V17.2801C22.6924 17.2709 22.3636 17.3687 22.0884 17.5593C21.7127 17.8092 21.2695 17.9381 20.8184 17.9287Z" fill="white"/>
<path d="M3.17843 17.9287C2.72836 17.938 2.28626 17.8092 1.91162 17.5596C1.63649 17.3689 1.30767 17.2709 0.973022 17.2801V16.6314C1.42319 16.6221 1.86542 16.7509 2.24016 17.0005C2.51513 17.1913 2.84387 17.2892 3.17843 17.2801C3.51314 17.2893 3.84202 17.1912 4.11702 17.0002C4.49096 16.7507 4.93246 16.622 5.38189 16.6314C5.82042 16.6216 6.2517 16.7444 6.61918 16.9839L6.29194 17.5437C6.02351 17.3631 5.70531 17.2709 5.38189 17.2801C5.04856 17.2711 4.72108 17.3688 4.44718 17.559C4.07212 17.8093 3.62923 17.9383 3.17843 17.9287Z" fill="white"/>
<path d="M20.8194 15.6581C20.3689 15.6673 19.9265 15.5386 19.5513 15.2891C19.2721 15.1066 18.9458 15.0094 18.6122 15.0094C18.2787 15.0094 17.9523 15.1066 17.6731 15.2891C17.2946 15.53 16.8551 15.658 16.4063 15.658C15.9576 15.658 15.5181 15.53 15.1395 15.2891C14.8607 15.1067 14.5347 15.0096 14.2016 15.0096C13.8684 15.0096 13.5425 15.1067 13.2636 15.2891C12.8851 15.5301 12.4456 15.6582 11.9968 15.6582C11.548 15.6582 11.1085 15.5301 10.73 15.2891C10.4512 15.1067 10.1252 15.0096 9.79205 15.0096C9.45888 15.0096 9.13294 15.1067 8.8541 15.2891C8.47948 15.5387 8.03736 15.6675 7.58729 15.6581C7.13723 15.6675 6.6951 15.5387 6.32048 15.2891C6.04561 15.0983 5.71699 15.0004 5.38254 15.0095C5.04819 15.0004 4.71969 15.0984 4.44491 15.2891C4.07089 15.5384 3.62947 15.6672 3.18005 15.6581C2.72988 15.6675 2.28765 15.5387 1.91291 15.2891C1.63749 15.0979 1.30813 15 0.973022 15.0095V14.3608C1.42309 14.3515 1.86519 14.4804 2.23983 14.7299C2.51496 14.9207 2.84378 15.0186 3.17843 15.0095C3.51277 15.0186 3.84127 14.9206 4.11605 14.7299C4.49008 14.4806 4.93149 14.3518 5.38091 14.3608C5.83132 14.3513 6.27381 14.4801 6.6487 14.7299C6.92367 14.9207 7.25241 15.0187 7.58697 15.0095C7.92153 15.0187 8.25026 14.9207 8.52524 14.7299C8.90378 14.4888 9.34326 14.3608 9.79205 14.3608C10.2408 14.3608 10.6803 14.4888 11.0589 14.7299C11.3377 14.9123 11.6637 15.0094 11.997 15.0094C12.3302 15.0094 12.6562 14.9123 12.9351 14.7299C13.3136 14.4888 13.7531 14.3608 14.2019 14.3608C14.6507 14.3608 15.0902 14.4888 15.4687 14.7299C15.7476 14.9123 16.0736 15.0094 16.4068 15.0094C16.74 15.0094 17.066 14.9123 17.3449 14.7299C17.7238 14.4889 18.1636 14.3609 18.6127 14.3609C19.0618 14.3609 19.5016 14.4889 19.8805 14.7299C20.1599 14.9123 20.4863 15.0093 20.8199 15.0093C21.1535 15.0093 21.4799 14.9123 21.7593 14.7299C22.1344 14.4805 22.5767 14.3517 23.0271 14.3608V15.0095C22.6918 15 22.3622 15.098 22.0865 15.2891C21.7116 15.5384 21.2695 15.6671 20.8194 15.6581Z" fill="white"/>
<path d="M20.8184 13.3881C20.3683 13.3973 19.9261 13.2685 19.5513 13.0191C19.2762 12.8283 18.9473 12.7304 18.6127 12.7395C18.3671 12.731 18.1232 12.7834 17.9028 12.8919L17.6167 12.3081C17.9263 12.1564 18.268 12.0815 18.6127 12.0899C19.0634 12.0807 19.5061 12.2098 19.8811 12.4599C20.1608 12.6427 20.4876 12.7401 20.8217 12.7401C21.1558 12.7401 21.4826 12.6427 21.7622 12.4599C22.1364 12.211 22.5777 12.0822 23.0271 12.0908V12.7395C22.6925 12.7303 22.3637 12.8281 22.0885 13.0187C21.7128 13.2686 21.2696 13.3975 20.8184 13.3881Z" fill="white"/>
<path d="M16.4044 13.3881C15.9549 13.3975 15.5135 13.2688 15.1395 13.0194C14.8605 12.8369 14.5344 12.7397 14.2011 12.7397C13.8677 12.7397 13.5416 12.8369 13.2626 13.0194C12.884 13.2604 12.4445 13.3884 11.9957 13.3884C11.5468 13.3884 11.1073 13.2604 10.7287 13.0194C10.4497 12.837 10.1237 12.7399 9.79043 12.7399C9.45716 12.7399 9.13111 12.837 8.85216 13.0194C8.47759 13.2685 8.03578 13.3972 7.586 13.3881C7.13593 13.3974 6.69382 13.2686 6.31918 13.019C6.04406 12.8283 5.71524 12.7304 5.38059 12.7395C5.04726 12.7305 4.71978 12.8282 4.44589 13.0184C4.07119 13.2684 3.62879 13.3975 3.17843 13.3881C2.72837 13.3974 2.28626 13.2686 1.91162 13.019C1.63649 12.8283 1.30767 12.7304 0.973022 12.7395V12.0908C1.42319 12.0815 1.86542 12.2103 2.24016 12.4599C2.51513 12.6507 2.84387 12.7486 3.17843 12.7395C3.51314 12.7487 3.84202 12.6506 4.11702 12.4596C4.49096 12.2101 4.93246 12.0814 5.38189 12.0908C5.83195 12.0815 6.27405 12.2103 6.6487 12.4599C6.92367 12.6507 7.25241 12.7486 7.58697 12.7395C7.92162 12.7486 8.25044 12.6506 8.52556 12.4599C8.90418 12.2189 9.3437 12.0908 9.79254 12.0908C10.2414 12.0908 10.6809 12.2189 11.0595 12.4599C11.3385 12.6423 11.6645 12.7394 11.9978 12.7394C12.3311 12.7394 12.6571 12.6423 12.9361 12.4599C13.3147 12.2187 13.7544 12.0905 14.2033 12.0905C14.6523 12.0905 15.092 12.2187 15.4706 12.4599C15.7564 12.6521 16.0952 12.7498 16.4394 12.7391C16.4644 12.7395 16.4895 12.7382 16.5143 12.7352L16.6006 13.3781C16.5355 13.3857 16.4699 13.389 16.4044 13.3881Z" fill="white"/>
<path d="M20.8194 11.1175C20.3689 11.1267 19.9265 10.9979 19.5513 10.7484C19.2721 10.566 18.9458 10.4688 18.6122 10.4688C18.2787 10.4688 17.9523 10.566 17.6731 10.7484C17.2946 10.9894 16.8551 11.1174 16.4063 11.1174C15.9576 11.1174 15.5181 10.9894 15.1395 10.7484C14.8607 10.5661 14.5347 10.469 14.2016 10.469C13.8684 10.469 13.5425 10.5661 13.2636 10.7484C12.8851 10.9895 12.4456 11.1175 11.9968 11.1175C11.548 11.1175 11.1085 10.9895 10.73 10.7484C10.4512 10.5661 10.1252 10.469 9.79205 10.469C9.45888 10.469 9.13294 10.5661 8.8541 10.7484C8.47948 10.998 8.03736 11.1268 7.58729 11.1175C7.13723 11.1268 6.6951 10.998 6.32048 10.7484C6.04561 10.5577 5.71699 10.4597 5.38254 10.4688C5.04819 10.4598 4.71969 10.5577 4.44491 10.7484C4.07089 10.9977 3.62947 11.1265 3.18005 11.1175C2.72988 11.1268 2.28765 10.998 1.91291 10.7484C1.63749 10.5573 1.30813 10.4593 0.973022 10.4688V9.8202C1.42309 9.8109 1.86519 9.9397 2.23983 10.1893C2.51496 10.38 2.84378 10.478 3.17843 10.4688C3.51277 10.4779 3.84127 10.38 4.11605 10.1893C4.49008 9.93995 4.93149 9.81115 5.38091 9.8202C5.83132 9.81063 6.27381 9.93945 6.6487 10.1893C6.92367 10.3801 7.25241 10.478 7.58697 10.4688C7.92153 10.478 8.25026 10.3801 8.52524 10.1893C8.90378 9.94819 9.34326 9.82012 9.79205 9.82012C10.2408 9.82012 10.6803 9.94819 11.0589 10.1893C11.3377 10.3717 11.6637 10.4688 11.997 10.4688C12.3302 10.4688 12.6562 10.3717 12.9351 10.1893C13.3136 9.94819 13.7531 9.82012 14.2019 9.82012C14.6507 9.82012 15.0902 9.94819 15.4687 10.1893C15.7476 10.3717 16.0736 10.4688 16.4068 10.4688C16.74 10.4688 17.066 10.3717 17.3449 10.1893C17.7238 9.94828 18.1636 9.82028 18.6127 9.82028C19.0618 9.82028 19.5016 9.94828 19.8805 10.1893C20.1599 10.3716 20.4863 10.4687 20.8199 10.4687C21.1535 10.4687 21.4799 10.3716 21.7593 10.1893C22.1344 9.93985 22.5767 9.81107 23.0271 9.8202V10.4688C22.6918 10.4594 22.3622 10.5573 22.0865 10.7484C21.7116 10.9977 21.2695 11.1265 20.8194 11.1175Z" fill="white"/>
<path d="M16.1978 10.8425L15.5858 10.6278C15.7434 10.1749 15.8078 9.69484 15.7751 9.21646C15.7424 8.73808 15.6133 8.27125 15.3954 7.84408L13.1677 3.48159C13.1457 3.43851 13.1336 3.39106 13.1323 3.3427C13.131 3.29435 13.1406 3.24632 13.1602 3.20213C13.1799 3.15795 13.2092 3.11873 13.2461 3.08734C13.2829 3.05595 13.3262 3.03319 13.373 3.02073L17.8126 1.83695C17.9573 1.79911 18.0812 1.70567 18.1573 1.57696C18.2335 1.44825 18.2557 1.29468 18.2192 1.14967C18.1827 1.00465 18.0904 0.879915 17.9624 0.802603C17.8344 0.725291 17.681 0.701655 17.5357 0.736838L12.1623 2.02116C12.0474 2.04831 11.9403 2.10153 11.8493 2.17671C11.7583 2.25189 11.6858 2.34701 11.6375 2.45469C11.5892 2.56238 11.5663 2.67975 11.5706 2.7977C11.575 2.91566 11.6064 3.03103 11.6625 3.13489L13.2581 6.09921C13.2986 6.17456 13.3077 6.26283 13.2834 6.34483C13.2591 6.42684 13.2034 6.49592 13.1284 6.53705L11.069 7.67219L10.756 7.10397L12.5339 6.12386L11.092 3.44235C10.9888 3.25092 10.9311 3.03834 10.9232 2.82103C10.9153 2.60372 10.9576 2.38752 11.0466 2.18913C11.1356 1.99074 11.2691 1.81549 11.4367 1.67693C11.6043 1.53836 11.8015 1.4402 12.0131 1.39003L17.3839 0.106027C17.6965 0.0270211 18.0278 0.0754585 18.3047 0.240683C18.5817 0.405908 18.7817 0.674385 18.8607 0.987054C18.9397 1.29972 18.8913 1.63097 18.726 1.90793C18.5608 2.18488 18.2923 2.38486 17.9797 2.46386L13.9275 3.54386L15.9734 7.54862C16.231 8.05414 16.3837 8.60654 16.4223 9.1726C16.4608 9.73866 16.3845 10.3067 16.1978 10.8425Z" fill="white"/>
<path d="M9.62229 7.7339L5.68103 9.90564L5.99392 10.4735L9.93518 8.30172L9.62229 7.7339Z" fill="white"/>
<path d="M19.1352 8.68505C18.6541 8.68505 18.1838 8.54239 17.7838 8.27511C17.3838 8.00784 17.072 7.62794 16.8879 7.18347C16.7038 6.739 16.6556 6.24992 16.7495 5.77808C16.8434 5.30623 17.075 4.87282 17.4152 4.53263C17.7554 4.19245 18.1888 3.96079 18.6606 3.86693C19.1325 3.77307 19.6216 3.82124 20.066 4.00535C20.5105 4.18945 20.8904 4.50122 21.1577 4.90124C21.425 5.30125 21.5676 5.77153 21.5676 6.25262C21.5669 6.89753 21.3104 7.51583 20.8544 7.97185C20.3984 8.42787 19.7801 8.68437 19.1352 8.68505ZM19.1352 4.46884C18.7824 4.46884 18.4375 4.57346 18.1442 4.76946C17.8508 4.96547 17.6222 5.24405 17.4872 5.57C17.3522 5.89594 17.3169 6.2546 17.3857 6.60062C17.4545 6.94664 17.6244 7.26448 17.8739 7.51395C18.1233 7.76341 18.4412 7.9333 18.7872 8.00213C19.1332 8.07096 19.4919 8.03563 19.8178 7.90062C20.1438 7.76561 20.4223 7.53698 20.6183 7.24364C20.8144 6.9503 20.919 6.60542 20.919 6.25262C20.9184 5.77972 20.7302 5.32635 20.3959 4.99196C20.0615 4.65757 19.6081 4.46944 19.1352 4.46884Z" fill="white"/>
</svg>
